# xmcd
#
# Track frame offsets:
#	225
#	33495
#	51447
#	78333
#	100871
#	122658
#	145879
#	168721
#	189341
#
# Disc length: 2722 seconds
# Revision: 1
# Processed by: cddbd v1.5.2PL0 Copyright (c) Steve Scherf et al.
# Submitted via: dBpowerAMP V12.0
#
DISCID=790a9f09
DTITLE=Tadeusz Nalepa - Najstarszy zawód świata
DYEAR=1995
DGENRE=Blues
TTITLE0=Byłem zły jak pies
TTITLE1=Dlatego głupku jesteś sam
TTITLE2=Zabawka
TTITLE3=Jesteś człowiekiem
TTITLE4=Najstarszy zawód świata
TTITLE5=Biedak
TTITLE6=Niechciane dzieci
TTITLE7=Dogonić życie
TTITLE8=Daj rozkoszy noce
EXTD=
EXTT0=
EXTT1=
EXTT2=
EXTT3=
EXTT4=
EXTT5=
EXTT6=
EXTT7=
EXTT8=
PLAYORDER=
